<?xml version="1.0" encoding="utf-8"?>
<!-- Generator: Adobe Illustrator 28.2.0, SVG Export Plug-In . SVG Version: 6.00 Build 0)  -->
<svg version="1.1"
	 id="svg15587" xmlns:rdf="http://www.w3.org/1999/02/22-rdf-syntax-ns#" xmlns:cc="http://creativecommons.org/ns#" xmlns:svg="http://www.w3.org/2000/svg" xmlns:dc="http://purl.org/dc/elements/1.1/"
	 xmlns="http://www.w3.org/2000/svg" xmlns:xlink="http://www.w3.org/1999/xlink" x="0px" y="0px" viewBox="0 0 608 40.4"
	 style="enable-background:new 0 0 608 40.4;" xml:space="preserve">
<style type="text/css">
	.st0{clip-path:url(#SVGID_00000013889217194708323700000010813274016720968850_);}
	.st1{fill:#83816F;}
	.st2{fill:#ADAB98;}
	.st3{fill:#989683;}
	.st4{clip-path:url(#SVGID_00000018920768342644150060000014862947780411821206_);}
</style>
<g id="logo-group">
	<g id="logo-center" transform="translate(-1.1368683772161603e-13 0)">
		<g>
			<defs>
				<polygon id="SVGID_1_" points="-207.1,-362.1 -206.1,-362.1 -207.1,-361.1 				"/>
			</defs>
			<defs>
				<polygon id="SVGID_00000168835851540471613440000017201571298527767719_" points="-209.1,-364.1 -210.1,-364.1 -209.1,-365.1 
									"/>
			</defs>
			<clipPath id="SVGID_00000032634776510093286440000008584365649163535248_">
				<use xlink:href="#SVGID_1_"  style="overflow:visible;"/>
			</clipPath>
			
				<clipPath id="SVGID_00000103244510305505216010000015689939176469628827_" style="clip-path:url(#SVGID_00000032634776510093286440000008584365649163535248_);">
				<use xlink:href="#SVGID_00000168835851540471613440000017201571298527767719_"  style="overflow:visible;"/>
			</clipPath>
		</g>
		<g id="slogan" transform="translate(0 0)">
		</g>
		<g id="title" transform="translate(0 0)">
			<g id="path15596" transform="translate(0 302.491) translate(209.43082625 62.582) scale(0.75) translate(-108.56656 50.328)">
				<rect x="-124.3" y="-534.5" class="st1" width="22" height="16.5"/>
				<path class="st1" d="M-129.8-507v-27.5h-8.3c-7.6,0-13.8,6.2-13.8,13.8l0,0c0,7.6,6.2,13.8,13.8,13.8L-129.8-507L-129.8-507z"/>
				<path class="st1" d="M-124.3-512.5v27.5h8.3c7.6,0,13.8-6.2,13.8-13.8v0c0-7.6-6.2-13.8-13.8-13.8
					C-116.1-512.5-124.3-512.5-124.3-512.5z"/>
				<rect x="-151.9" y="-501.4" class="st1" width="22" height="16.5"/>
				<rect x="-168.9" y="-518" class="st2" width="72.2" height="16.5"/>
				<path class="st3" d="M-129.8-507v-11h-21.8c1.3,6.3,6.8,11,13.5,11H-129.8z"/>
				<path class="st3" d="M-116.1-512.5h-8.3v11h21.8C-103.8-507.7-109.4-512.5-116.1-512.5z"/>
			</g>
			
				<g id="path15598" transform="translate(0 302.491) translate(261.32145125000005 62.582) scale(0.75) translate(-177.75406 50.328)">
				<path class="st1" d="M-66.7-507v-27.5h22v49.6h0C-56.8-484.9-66.7-494.8-66.7-507z"/>
				<path class="st1" d="M-94.3-484.9v-49.6h22v27.5C-72.2-494.8-82.1-484.9-94.3-484.9L-94.3-484.9z"/>
				<rect x="-99.8" y="-518" class="st2" width="60.6" height="16.5"/>
				<path class="st3" d="M-44.7-518h-22v11c0,1.9,0.2,3.7,0.7,5.5h21.3V-518z"/>
				<path class="st3" d="M-94.3-501.4h21.3c0.5-1.8,0.7-3.6,0.7-5.5v-11h-22C-94.3-518-94.3-501.4-94.3-501.4z"/>
			</g>
			
				<g id="path15600" transform="translate(0 302.491) translate(304.2987012500001 62.636) scale(0.75) translate(-235.05706 50.256)">
				<rect x="-36.9" y="-534.4" class="st1" width="49.6" height="49.6"/>
				<rect x="-42.5" y="-517.9" class="st2" width="60.6" height="16.5"/>
				<rect x="-36.9" y="-517.9" class="st3" width="49.6" height="16.5"/>
			</g>
			
				<g id="path15602" transform="translate(0 302.491) translate(347.38395125000005 62.582) scale(0.75) translate(-292.50406 50.328)">
				<path class="st1" d="M42.5-484.9h-22v-27.5c0-12.2,9.9-22,22-22h0C42.5-534.5,42.5-484.9,42.5-484.9z"/>
				<path class="st1" d="M48-534.5v49.6h22v-27.5C70.1-524.6,60.2-534.5,48-534.5L48-534.5L48-534.5z"/>
				<rect x="15" y="-518" class="st2" width="60.6" height="16.5"/>
				<path class="st3" d="M48-501.4h22v-11c0-1.9-0.2-3.7-0.7-5.5H48V-501.4z"/>
				<path class="st3" d="M42.5-501.4V-518H21.2c-0.5,1.8-0.7,3.6-0.7,5.5v11H42.5z"/>
			</g>
			
				<g id="path15604" transform="translate(0 302.491) translate(390.41520125000005 62.582) scale(0.75) translate(-349.87906 50.328)">
				<polygon class="st1" points="127.4,-534.5 77.9,-534.5 77.9,-518 91.6,-518 91.6,-484.9 113.7,-484.9 113.7,-518 127.4,-518 
									"/>
				<rect x="72.4" y="-518" class="st2" width="60.6" height="16.5"/>
				<rect x="91.6" y="-518" class="st3" width="22" height="16.5"/>
			</g>
			
				<g id="path15606" transform="translate(0 302.491) translate(433.3924512500001 62.636) scale(0.75) translate(-407.18206 50.256)">
				<rect x="135.2" y="-534.4" class="st1" width="49.6" height="49.6"/>
				<rect x="129.7" y="-517.9" class="st2" width="60.6" height="16.5"/>
				<rect x="135.2" y="-517.9" class="st3" width="49.6" height="16.5"/>
			</g>
			
				<g id="path15608" transform="translate(0 302.491) translate(476.47770125000005 62.582) scale(0.75) translate(-464.62906 50.328)">
				<path class="st1" d="M220.2-534.5h11c6.1,0,11,4.9,11,11l0,0c0,6.1-4.9,11-11,11h-11V-534.5z"/>
				<rect x="192.6" y="-534.5" class="st1" width="22" height="49.6"/>
				<path class="st1" d="M220.2-507v22h22v0C242.2-497.1,232.3-507,220.2-507L220.2-507z"/>
				<rect x="187.1" y="-518" class="st2" width="60.6" height="16.5"/>
				<rect x="192.6" y="-518" class="st3" width="22" height="16.5"/>
				<path class="st3" d="M220.2-507L220.2-507l0,5.5h14.6C230.9-504.9,225.8-507,220.2-507z"/>
				<path class="st3" d="M220.2-518v5.5h11c4.1,0,7.6-2.2,9.5-5.5C240.7-518,220.2-518,220.2-518z"/>
			</g>
			
				<g id="path15610" transform="translate(0 302.491) translate(544.8729237500002 62.582) scale(0.75) translate(-555.82269 50.328)">
				<rect x="283.8" y="-534.5" class="st1" width="22" height="49.6"/>
				<rect x="311.4" y="-534.5" class="st1" width="22" height="49.6"/>
				<rect x="278.3" y="-518" class="st2" width="60.6" height="16.5"/>
				<rect x="311.4" y="-518" class="st3" width="22" height="16.5"/>
				<rect x="283.8" y="-518" class="st3" width="22" height="16.5"/>
			</g>
			
				<g id="path15612" transform="translate(0 302.491) translate(587.9041737500003 62.636) scale(0.75) translate(-613.19769 50.256)">
				<rect x="341.2" y="-534.4" class="st1" width="49.6" height="49.6"/>
				<rect x="335.7" y="-517.9" class="st2" width="60.6" height="16.5"/>
				<rect x="341.2" y="-517.9" class="st3" width="49.6" height="16.5"/>
			</g>
			
				<g id="path15614" transform="translate(0 302.491) translate(630.9894237500004 62.582) scale(0.75) translate(-670.64469 50.328)">
				<path class="st1" d="M420.7-484.9h-22v-27.5c0-12.2,9.9-22,22-22l0,0C420.7-534.5,420.7-484.9,420.7-484.9z"/>
				<path class="st1" d="M426.2-534.5v49.6h22v-27.5C448.2-524.6,438.4-534.5,426.2-534.5L426.2-534.5L426.2-534.5z"/>
				<rect x="393.1" y="-518" class="st2" width="60.6" height="16.5"/>
				<path class="st3" d="M426.2-501.4h22v-11c0-1.9-0.2-3.7-0.7-5.5h-21.3V-501.4z"/>
				<path class="st3" d="M420.7-501.4V-518h-21.3c-0.5,1.8-0.7,3.6-0.7,5.5v11H420.7z"/>
			</g>
			
				<g id="path15616" transform="translate(0 302.491) translate(674.0206737500002 62.582) scale(0.75) translate(-728.01969 50.328)">
				<path class="st1" d="M483.6-534.5h22v27.5c0,12.2-9.9,22-22,22h0C483.6-484.9,483.6-534.5,483.6-534.5z"/>
				<rect x="456" y="-534.5" class="st1" width="22" height="49.6"/>
				<rect x="450.5" y="-518" class="st2" width="60.6" height="16.5"/>
				<path class="st3" d="M483.6-518v16.5h21.3c0.5-1.8,0.7-3.6,0.7-5.5v-11H483.6z"/>
				<rect x="456" y="-518" class="st3" width="22" height="16.5"/>
			</g>
			
				<g id="path15618" transform="translate(0 302.491) translate(716.9979237500002 62.636) scale(0.75) translate(-785.32269 50.256)">
				<rect x="513.3" y="-534.4" class="st1" width="49.6" height="49.6"/>
				<rect x="507.8" y="-517.9" class="st2" width="60.6" height="16.5"/>
				<rect x="513.3" y="-517.9" class="st3" width="49.6" height="16.5"/>
			</g>
			
				<g id="path15620" transform="translate(0 302.491) translate(760.0831737500002 62.582) scale(0.75) translate(-842.76969 50.328)">
				<path class="st1" d="M620.2-512.5v27.5h-22v-49.6h0C610.4-534.5,620.2-524.6,620.2-512.5z"/>
				<rect x="570.9" y="-534.5" class="st1" width="21.8" height="49.6"/>
				<rect x="565.3" y="-518" class="st2" width="71.5" height="16.5"/>
				<path class="st3" d="M598.2-501.4h22v-11c0-1.9-0.2-3.7-0.7-5.5h-21.3V-501.4z"/>
				<rect x="570.9" y="-518" class="st3" width="21.8" height="16.5"/>
			</g>
		</g>
		<g>
			<defs>
				<polygon id="SVGID_00000067233864695800099020000012297589967008287122_" points="-207.1,-362.1 -206.1,-362.1 -207.1,-361.1 
									"/>
			</defs>
			<defs>
				<polygon id="SVGID_00000089570978198696061510000003998762603941308032_" points="-209.1,-364.1 -210.1,-364.1 -209.1,-365.1 
									"/>
			</defs>
			<clipPath id="SVGID_00000124872990590804146120000012655894981476265919_">
				<use xlink:href="#SVGID_00000067233864695800099020000012297589967008287122_"  style="overflow:visible;"/>
			</clipPath>
			
				<clipPath id="SVGID_00000093167350896234271900000002140385599200577462_" style="clip-path:url(#SVGID_00000124872990590804146120000012655894981476265919_);">
				<use xlink:href="#SVGID_00000089570978198696061510000003998762603941308032_"  style="overflow:visible;"/>
			</clipPath>
		</g>
	</g>
</g>
</svg>
