<?xml version="1.0" encoding="utf-8"?>
<!-- Generator: Adobe Illustrator 28.2.0, SVG Export Plug-In . SVG Version: 6.00 Build 0)  -->
<svg version="1.1"
	 id="svg15587" xmlns:svg="http://www.w3.org/2000/svg" xmlns:cc="http://creativecommons.org/ns#" xmlns:dc="http://purl.org/dc/elements/1.1/" xmlns:rdf="http://www.w3.org/1999/02/22-rdf-syntax-ns#"
	 xmlns="http://www.w3.org/2000/svg" xmlns:xlink="http://www.w3.org/1999/xlink" x="0px" y="0px" viewBox="0 0 102.2 40.4"
	 style="enable-background:new 0 0 102.2 40.4;" xml:space="preserve">
<style type="text/css">
	.st0{fill:#83816F;}
	.st1{fill:#ADAB98;}
	.st2{fill:#989683;}
</style>
<g id="logo-group">
	<g id="logo-center" transform="translate(-1.1368683772161603e-13 0)">
		<g>
			<g>
				<defs>
					<polygon id="SVGID_1_" points="-207.1,-362.1 -206.1,-362.1 -207.1,-361.1 					"/>
				</defs>
				<clipPath id="SVGID_00000103945756411878683590000009817438601923222658_">
					<use xlink:href="#SVGID_1_"  style="overflow:visible;"/>
				</clipPath>
			</g>
		</g>
		<g id="slogan" transform="translate(0 0)">
		</g>
		<g id="title" transform="translate(0 0)">
			<g id="path15596" transform="translate(0 302.491) translate(209.43082625 62.582) scale(0.75) translate(-108.56656 50.328)">
				<rect x="-124.3" y="-534.5" class="st0" width="22" height="16.5"/>
				<path class="st0" d="M-129.8-507v-27.5h-8.3c-7.6,0-13.8,6.2-13.8,13.8l0,0c0,7.6,6.2,13.8,13.8,13.8L-129.8-507L-129.8-507z"/>
				<path class="st0" d="M-124.3-512.5v27.5h8.3c7.6,0,13.8-6.2,13.8-13.8l0,0c0-7.6-6.2-13.8-13.8-13.8
					C-116.1-512.5-124.3-512.5-124.3-512.5z"/>
				<rect x="-151.9" y="-501.4" class="st0" width="22" height="16.5"/>
				<rect x="-168.9" y="-518" class="st1" width="72.2" height="16.5"/>
				<path class="st2" d="M-129.8-507v-11h-21.8c1.3,6.3,6.8,11,13.5,11H-129.8z"/>
				<path class="st2" d="M-116.1-512.5h-8.3v11h21.8C-103.8-507.7-109.4-512.5-116.1-512.5z"/>
			</g>
			
				<g id="path15610" transform="translate(0 302.491) translate(544.8729237500002 62.582) scale(0.75) translate(-555.82269 50.328)">
				<rect x="-91.2" y="-534.5" class="st0" width="22" height="49.6"/>
				<rect x="-63.6" y="-534.5" class="st0" width="22" height="49.6"/>
				<rect x="-96.7" y="-518" class="st1" width="60.6" height="16.5"/>
				<rect x="-63.6" y="-518" class="st2" width="22" height="16.5"/>
				<rect x="-91.2" y="-518" class="st2" width="22" height="16.5"/>
			</g>
		</g>
		<g>
			<g>
				<defs>
					<polygon id="SVGID_00000078006938376621691750000013141436603501944481_" points="-207.1,-362.1 -206.1,-362.1 -207.1,-361.1 
											"/>
				</defs>
				<clipPath id="SVGID_00000112609126885097880120000007712470121089249451_">
					<use xlink:href="#SVGID_00000078006938376621691750000013141436603501944481_"  style="overflow:visible;"/>
				</clipPath>
			</g>
		</g>
	</g>
</g>
</svg>
